<?xml version="1.0" encoding="utf-8"?>
<!-- Generator: Adobe Illustrator 15.0.0, SVG Export Plug-In . SVG Version: 6.00 Build 0)  -->
<!DOCTYPE svg PUBLIC "-//W3C//DTD SVG 1.1//EN" "http://www.w3.org/Graphics/SVG/1.1/DTD/svg11.dtd">
<svg version="1.1" id="Layer_1" xmlns="http://www.w3.org/2000/svg" xmlns:xlink="http://www.w3.org/1999/xlink" x="0px" y="0px"
	 width="205px" height="51.0004883px" viewBox="0 0 205 51.0004883" enable-background="new 0 0 205 51.0004883"
	 xml:space="preserve">
<g>
	<path fill="#FFFFFF" d="M52.0322266,19.4418945c-0.0576172-0.2011719-0.1171875-0.4003906-0.1796875-0.5996094
		c-0.1240234-0.3994141-0.2578125-0.7929688-0.4003906-1.1835938c-0.3574219-0.9736328-0.7724609-1.9208984-1.2421875-2.8349609
		c-0.1875-0.3662109-0.3837891-0.7275391-0.5878906-1.0820312c-0.2050781-0.3564453-0.4179688-0.7060547-0.6396484-1.0498047
		c-0.109375-0.171875-0.2226562-0.34375-0.3369141-0.5117188c-0.2285156-0.3398438-0.4658203-0.671875-0.7109375-1
		c-1.9560547-2.6132812-4.4023438-4.8417969-7.203125-6.5449219c-0.3496094-0.2128906-0.7041016-0.4160156-1.0654297-0.6132812
		c-3.6074219-1.9609375-7.7382812-3.0771484-12.125-3.0771484c-2.1933594,0-4.3232422,0.2783203-6.3554688,0.8037109
		c-0.4052734,0.1044922-0.8085938,0.21875-1.2070312,0.34375c-0.1982422,0.0615234-0.3974609,0.125-0.5947266,0.1923828
		c-0.3935547,0.1337891-0.7841797,0.2773438-1.1689453,0.4287109c-0.1923828,0.0761719-0.3837891,0.1542969-0.5742188,0.2353516
		c-0.5703125,0.2421875-1.1308594,0.5039062-1.6796875,0.7861328c-0.1826172,0.0927734-0.3652344,0.1894531-0.5449219,0.2871094
		c-0.3613281,0.1972656-0.7158203,0.4003906-1.0664062,0.6132812C14,4.8481445,13.6552734,5.0698242,13.3164062,5.2993164
		C13.1464844,5.4145508,12.9785156,5.5297852,12.8125,5.6489258c-0.3330078,0.2363281-0.6591797,0.4804688-0.9794922,0.7324219
		c-0.3212891,0.2519531-0.6357422,0.5126953-0.9443359,0.7792969C10.4267578,7.5610352,9.9794922,7.9780273,9.546875,8.409668
		c-1.5839844,1.5849609-2.9619141,3.3769531-4.0869141,5.3320312c-0.4091797,0.7099609-0.7851562,1.4433594-1.125,2.1943359
		c-0.3623047,0.7988281-0.6835938,1.6191406-0.9628906,2.4589844c-0.2089844,0.6298828-0.3945312,1.2714844-0.5546875,1.9208984
		c-0.4804688,1.9511719-0.7353516,3.9892578-0.7353516,6.0878906c0,0.7626953,0.0351562,1.5205078,0.1025391,2.2724609
		c0.0664062,0.7324219,0.1640625,1.4609375,0.2929688,2.1806641c0.0654297,0.3603516,0.1376953,0.7177734,0.2177734,1.0732422
		c0.0595703,0.2675781,0.1240234,0.5332031,0.1914062,0.7978516c0.1367188,0.5283203,0.2910156,1.0527344,0.4609375,1.5712891
		c0.0849609,0.2597656,0.1738281,0.5166016,0.2675781,0.7724609c0.2480469,0.6826172,0.5244141,1.3544922,0.8300781,2.0126953
		c0.0664062,0.1455078,0.1357422,0.2910156,0.2060547,0.4335938c0.1806641,0.3730469,0.3681641,0.7421875,0.5673828,1.1074219
		c0.7158203,1.3076172,1.5458984,2.5527344,2.4824219,3.7207031c0.3115234,0.3896484,0.6357422,0.7695312,0.9707031,1.140625
		c0.8378906,0.9296875,1.7470703,1.7988281,2.7236328,2.6015625c0.1953125,0.1601562,0.3935547,0.3183594,0.59375,0.4736328
		s0.4033203,0.3066406,0.609375,0.4570312l0.7285156,0.5283203C13.3828125,47.5883789,13.4404297,47.6235352,13.5,47.652832
		c0.0449219,0.0214844,0.0898438,0.0419922,0.1357422,0.0585938c0.1376953,0.0507812,0.2822266,0.0742188,0.4248047,0.0742188
		c0.1308594,0,0.2617188-0.0214844,0.3857422-0.0605469c0.0410156-0.0136719,0.0810547-0.0292969,0.1201172-0.046875
		c0.0537109-0.0244141,0.1054688-0.0507812,0.1552734-0.0820312c0.0507812-0.03125,0.0996094-0.0673828,0.1455078-0.1054688
		c0.0634766-0.0546875,0.125-0.1132812,0.1787109-0.1816406c0.0351562-0.0449219,0.0673828-0.0917969,0.0957031-0.140625
		l3.4189453-5.8242188l2.1289062-3.6269531l5.7626953-9.8164062c0.2421875-0.4121094,0.6611328-0.6181641,1.0800781-0.6181641
		c0.2626953,0,0.5244141,0.0800781,0.7441406,0.2421875c0.1308594,0.0966797,0.2460938,0.2236328,0.3378906,0.3789062
		l5.7363281,9.8359375l2.1201172,3.6337891l3.4033203,5.8339844c0.0878906,0.1503906,0.2021484,0.2763672,0.3320312,0.3730469
		c0.1308594,0.0976562,0.2792969,0.1679688,0.4335938,0.2089844c0.1035156,0.0253906,0.2099609,0.0390625,0.3173828,0.0390625
		c0.0625,0,0.1259766-0.0048828,0.1884766-0.0136719c0.0488281-0.0068359,0.0957031-0.0175781,0.1416016-0.0302734
		c0.1396484-0.0390625,0.2744141-0.1015625,0.4003906-0.1923828l0.7294922-0.5253906
		c0.6992188-0.5039062,1.3681641-1.0410156,2.0058594-1.6074219c0.2119141-0.1884766,0.421875-0.3808594,0.6269531-0.5761719
		c0.2753906-0.2597656,0.5429688-0.5273438,0.8037109-0.7988281c0.6982422-0.7246094,1.3505859-1.4882812,1.9541016-2.2832031
		c0.3027344-0.3994141,0.5917969-0.8066406,0.8691406-1.2207031c0.0449219-0.0683594,0.0878906-0.1357422,0.1318359-0.203125
		c0.9824219-1.4980469,1.8076172-3.0927734,2.4560547-4.7607422c0.0166016-0.0400391,0.0292969-0.0810547,0.0449219-0.1220703
		c0.2519531-0.6582031,0.4804688-1.3261719,0.6777344-2.0039062c0.1044922-0.359375,0.2011719-0.7226562,0.2910156-1.0878906
		c0.1181641-0.4863281,0.2226562-0.9765625,0.3125-1.4726562c0.0898438-0.4931641,0.1650391-0.9912109,0.2255859-1.4912109
		c0.0605469-0.5009766,0.1064453-1.0048828,0.1376953-1.5107422c0.0146484-0.2539062,0.0263672-0.5058594,0.0341797-0.7597656
		S53,26.6586914,53,26.4038086C53,23.9907227,52.6621094,21.6557617,52.0322266,19.4418945 M49.0449219,26.4038086
		c0,0.3466797-0.0078125,0.6943359-0.0253906,1.0390625c-0.0166016,0.3466797-0.0419922,0.6904297-0.0742188,1.0322266
		c-0.0673828,0.6855469-0.1660156,1.3652344-0.2978516,2.0351562c-0.1298828,0.6728516-0.2929688,1.3359375-0.4853516,1.9902344
		c-0.1328125,0.4482422-0.2861328,0.890625-0.4482422,1.3300781c-0.0683594,0.1835938-0.1386719,0.3671875-0.2119141,0.5507812
		c-0.1455078,0.3642578-0.3007812,0.7255859-0.4658203,1.0820312c-0.4130859,0.8925781-0.8876953,1.7558594-1.4208984,2.5839844
		c-0.7392578,1.1474609-1.5888672,2.2285156-2.5429688,3.2265625c-0.2460938,0.2578125-0.5693359,0.3808594-0.8916016,0.3808594
		c-0.0527344,0-0.1064453-0.0039062-0.1601562-0.0107422c-0.1054688-0.0126953-0.2109375-0.0400391-0.3105469-0.0800781
		s-0.1953125-0.0927734-0.2832031-0.1591797s-0.1689453-0.1445312-0.2392578-0.234375
		c-0.0341797-0.0449219-0.0673828-0.09375-0.0976562-0.1445312l-1.2890625-2.234375l-2.2011719-3.8105469l-8.9726562-15.5390625
		c-0.2412109-0.4169922-0.6621094-0.6259766-1.0839844-0.6259766c-0.1054688,0-0.2099609,0.0126953-0.3134766,0.0390625
		c-0.1015625,0.0263672-0.2011719,0.0654297-0.2958984,0.1162109c-0.0927734,0.0527344-0.1816406,0.1171875-0.2617188,0.1953125
		s-0.1513672,0.1679688-0.2119141,0.2724609l-9.0097656,15.5048828l-2.2119141,3.8066406l-1.2958984,2.2285156
		c-0.0292969,0.0507812-0.0615234,0.0986328-0.0966797,0.1445312c-0.1054688,0.1347656-0.2333984,0.2421875-0.3759766,0.3212891
		c-0.0478516,0.0263672-0.0957031,0.0498047-0.1455078,0.0693359c-0.1005859,0.0390625-0.2041016,0.0664062-0.3105469,0.0800781
		c-0.0527344,0.0068359-0.1064453,0.0107422-0.1601562,0.0107422c-0.1611328,0-0.3222656-0.03125-0.4746094-0.0947266
		c-0.1533203-0.0634766-0.2949219-0.1591797-0.4179688-0.2890625c-1.4199219-1.4941406-2.6083984-3.1738281-3.5380859-4.9814453
		c-0.3095703-0.6025391-0.5917969-1.2197266-0.84375-1.8476562c-0.2519531-0.6298828-0.4746094-1.2705078-0.6660156-1.9208984
		c-0.1923828-0.6503906-0.3535156-1.3115234-0.4833984-1.9794922c-0.0644531-0.3339844-0.1220703-0.6699219-0.1708984-1.0078125
		c-0.1464844-1.0146484-0.2216797-2.0429688-0.2216797-3.0800781c0-11.8564453,9.6464844-21.5039062,21.5039062-21.5039062
		c1.2041016,0,2.3857422,0.0986328,3.5371094,0.2910156c1.1494141,0.1904297,2.2705078,0.4736328,3.3525391,0.8408203
		c1.3310547,0.4511719,2.6054688,1.0302734,3.8056641,1.7207031c1.3505859,0.7783203,2.609375,1.6982422,3.7558594,2.7402344
		c0.2548828,0.2324219,0.5039062,0.46875,0.7480469,0.7128906c0.2421875,0.2431641,0.4794922,0.4921875,0.7119141,0.7470703
		c0.1152344,0.1279297,0.2294922,0.2568359,0.3427734,0.3857422c0.2246094,0.2597656,0.4453125,0.5263672,0.6582031,0.796875
		c0.1054688,0.1357422,0.2109375,0.2724609,0.3134766,0.4101562c0.3105469,0.4140625,0.6064453,0.8398438,0.8867188,1.2763672
		c0.2792969,0.4365234,0.5439453,0.8837891,0.7929688,1.3398438c0.1650391,0.3056641,0.3232422,0.6142578,0.4746094,0.9267578
		c0.0761719,0.1572266,0.1503906,0.3154297,0.2207031,0.4736328c0.1445312,0.3173828,0.2802734,0.6386719,0.4091797,0.9648438
		C48.5146484,20.9672852,49.0449219,23.6254883,49.0449219,26.4038086"/>
	<path fill="#FFFFFF" d="M27.5410156,39.6323242c-1.4472656,0-2.8388672-0.2373047-4.1445312-0.6679688l-2.1650391,3.6884766
		c1.9570312,0.7597656,4.0830078,1.1816406,6.3095703,1.1816406c2.2050781,0,4.3115234-0.4140625,6.2539062-1.1611328
		l-2.1552734-3.6943359C30.3486328,39.4008789,28.9716797,39.6323242,27.5410156,39.6323242"/>
	<path fill="#FFFFFF" d="M27.5410156,8.9731445c-9.6269531,0-17.4306641,7.8046875-17.4306641,17.4316406
		c0,3.6884766,1.1484375,7.1074219,3.1044922,9.9238281l2.4199219-4.1640625
		c-0.8466797-1.7421875-1.3232422-3.6962891-1.3232422-5.7597656c0-7.2949219,5.9355469-13.2294922,13.2294922-13.2294922
		s13.2285156,5.9345703,13.2285156,13.2294922c0,2.0800781-0.484375,4.0507812-1.3447266,5.8046875l2.4072266,4.1689453
		c1.9755859-2.8261719,3.1396484-6.2646484,3.1396484-9.9736328C44.9716797,16.777832,37.1679688,8.9731445,27.5410156,8.9731445"/>
	<path fill="#FFFFFF" d="M60.4960938,30.4067383c0-0.0341797,0.015625-0.1191406,0.0478516-0.2558594l4.6142578-15.0214844
		c0.0947266-0.3007812,0.3291016-0.5341797,0.703125-0.6992188c0.3740234-0.1640625,0.8017578-0.2460938,1.2783203-0.2460938
		c0.4785156,0,0.9082031,0.0898438,1.2900391,0.2734375s0.6210938,0.4414062,0.7158203,0.7753906l4.6103516,15.0234375
		c0.0322266,0.1279297,0.0478516,0.2070312,0.0478516,0.2392578c0,0.3496094-0.2148438,0.6533203-0.6445312,0.9072266
		c-0.4306641,0.2548828-0.8681641,0.3828125-1.3144531,0.3828125c-0.5888672,0-0.9404297-0.2070312-1.0507812-0.6210938
		l-0.9072266-3.1777344h-5.1171875l-0.8896484,3.1796875c-0.1259766,0.4121094-0.5205078,0.6191406-1.1845703,0.6191406
		c-0.5195312,0-1.0166016-0.1328125-1.4892578-0.3964844C60.7314453,31.1254883,60.4960938,30.7983398,60.4960938,30.4067383
		 M65.4521484,25.5512695h4.1298828l-2.078125-7.3320312L65.4521484,25.5512695z"/>
	<path fill="#FFFFFF" d="M76.2929688,30.8061523V15.2817383c0-0.2548828,0.0957031-0.4775391,0.2871094-0.6679688
		c0.1904297-0.1914062,0.4296875-0.2871094,0.7158203-0.2871094h4.7285156c3.7744141,0,5.6611328,1.6640625,5.6611328,4.9912109
		c0,1.3056641-0.2832031,2.3574219-0.8476562,3.1523438c-0.5664062,0.796875-1.3261719,1.3378906-2.28125,1.625l3.1289062,5.8027344
		c0.0791016,0.0966797,0.1191406,0.2236328,0.1191406,0.3818359c0,0.3994141-0.2070312,0.7695312-0.6210938,1.1113281
		c-0.4140625,0.3427734-0.8515625,0.5136719-1.3134766,0.5136719c-0.4628906,0-0.8203125-0.2480469-1.0742188-0.7402344
		l-3.3925781-6.5917969h-2.0058594v6.2333984c0,0.3017578-0.1503906,0.5410156-0.4541016,0.7158203
		c-0.3017578,0.1757812-0.6679688,0.2636719-1.0976562,0.2636719c-0.4140625,0-0.7773438-0.0878906-1.0869141-0.2636719
		C76.4482422,31.347168,76.2929688,31.1079102,76.2929688,30.8061523 M79.3974609,22.1362305h2.6269531
		c1.7041016,0,2.5566406-0.8447266,2.5566406-2.5322266c0-1.703125-0.8525391-2.5546875-2.5566406-2.5546875h-2.6269531V22.1362305z
		"/>
	<path fill="#FFFFFF" d="M90.8613281,30.8295898V15.2817383c0-0.2539062,0.1279297-0.4765625,0.3818359-0.6689453
		c0.2548828-0.1914062,0.5810547-0.2861328,0.9804688-0.2861328h4.2265625c1.7041016,0,3.0654297,0.4375,4.0839844,1.3125
		c1.0195312,0.8769531,1.5292969,2.2617188,1.5292969,4.15625v6.5214844c0,1.8945312-0.5097656,3.2792969-1.5292969,4.1542969
		c-1.0185547,0.8769531-2.3798828,1.3144531-4.0839844,1.3144531h-4.2265625c-0.3994141,0-0.7255859-0.0957031-0.9804688-0.2871094
		C90.9892578,31.3071289,90.8613281,31.0854492,90.8613281,30.8295898 M93.9667969,29.0629883h2.4833984
		c1.671875,0,2.5078125-0.9160156,2.5078125-2.7460938v-6.5214844c0-1.8310547-0.8359375-2.7460938-2.5078125-2.7460938h-2.4833984
		V29.0629883z"/>
	<path fill="#FFFFFF" d="M105.5976562,26.4594727V15.2817383c0-0.3183594,0.1503906-0.5566406,0.4541016-0.7167969
		c0.3017578-0.1582031,0.6689453-0.2382812,1.0986328-0.2382812c0.4287109,0,0.7949219,0.0800781,1.0976562,0.2382812
		c0.3027344,0.1601562,0.4541016,0.3984375,0.4541016,0.7167969v11.1777344c0,1.8310547,0.875,2.7470703,2.6269531,2.7470703
		c1.7509766,0,2.6269531-0.9160156,2.6269531-2.7470703V15.2817383c0-0.3183594,0.1513672-0.5566406,0.4541016-0.7167969
		c0.3027344-0.1582031,0.6689453-0.2382812,1.0996094-0.2382812c0.4296875,0,0.7958984,0.0800781,1.0976562,0.2382812
		c0.3027344,0.1601562,0.4541016,0.3984375,0.4541016,0.7167969v11.1777344c0,1.8789062-0.5224609,3.2597656-1.5644531,4.1445312
		c-1.0429688,0.8828125-2.4326172,1.3242188-4.1679688,1.3242188s-3.125-0.4375-4.1679688-1.3144531
		C106.1181641,29.7387695,105.5976562,28.3540039,105.5976562,26.4594727"/>
	<path fill="#FFFFFF" d="M119.9511719,29.0395508c0-0.3671875,0.1396484-0.7373047,0.4179688-1.1113281
		s0.59375-0.5605469,0.9433594-0.5605469c0.2070312,0,0.4423828,0.0976562,0.7050781,0.296875
		c0.2626953,0.1982422,0.5166016,0.4179688,0.7636719,0.6582031c0.2470703,0.2392578,0.6015625,0.4589844,1.0634766,0.65625
		c0.4619141,0.1992188,0.9707031,0.2978516,1.5283203,0.2978516c0.7646484,0,1.4003906-0.1748047,1.9101562-0.5244141
		c0.5107422-0.3505859,0.7646484-0.8681641,0.7646484-1.5527344c0-0.4775391-0.1396484-0.9042969-0.4179688-1.2773438
		c-0.2783203-0.375-0.6445312-0.6845703-1.0986328-0.9316406c-0.4541016-0.2460938-0.9521484-0.4863281-1.4931641-0.7167969
		c-0.5400391-0.2304688-1.0869141-0.4902344-1.6357422-0.7773438c-0.5488281-0.2851562-1.0507812-0.6083984-1.5048828-0.9667969
		c-0.4541016-0.3574219-0.8203125-0.8359375-1.0976562-1.4316406c-0.2792969-0.5976562-0.4179688-1.2783203-0.4179688-2.0429688
		c0-0.8554688,0.1708984-1.6123047,0.5126953-2.265625c0.3427734-0.6552734,0.7998047-1.1640625,1.3740234-1.5283203
		c0.5732422-0.3632812,1.1845703-0.6298828,1.8388672-0.7998047c0.6523438-0.1699219,1.3447266-0.2539062,2.0771484-0.2539062
		c0.4140625,0,0.8515625,0.0283203,1.3144531,0.0859375c0.4619141,0.0566406,0.9501953,0.1503906,1.46875,0.28125
		c0.5166016,0.1308594,0.9384766,0.3359375,1.265625,0.6132812c0.3261719,0.2773438,0.4892578,0.6054688,0.4892578,0.9804688
		c0,0.3544922-0.1113281,0.7216797-0.3339844,1.1005859s-0.5253906,0.5673828-0.9072266,0.5673828
		c-0.1435547,0-0.5341797-0.1503906-1.1708984-0.453125s-1.3457031-0.453125-2.1259766-0.453125
		c-0.859375,0-1.5244141,0.1630859-1.9941406,0.4882812c-0.46875,0.328125-0.7041016,0.7763672-0.7041016,1.3505859
		c0,0.4619141,0.1914062,0.8642578,0.5732422,1.2050781c0.3818359,0.3427734,0.8554688,0.6220703,1.4208984,0.8369141
		c0.5654297,0.2138672,1.1777344,0.4863281,1.8388672,0.8125c0.6601562,0.3261719,1.2744141,0.6796875,1.8388672,1.0625
		c0.5654297,0.3818359,1.0390625,0.9355469,1.4208984,1.6601562c0.3828125,0.7246094,0.5732422,1.5722656,0.5732422,2.5429688
		c0,1.6328125-0.5205078,2.8925781-1.5634766,3.7792969c-1.0429688,0.8886719-2.4169922,1.3320312-4.1201172,1.3320312
		c-1.5126953,0-2.8115234-0.3105469-3.8935547-0.9316406C120.4921875,30.4477539,119.9511719,29.7709961,119.9511719,29.0395508"/>
	<path fill="#FFFFFF" d="M134.2333984,30.8051758v-15.5c0-0.3007812,0.1347656-0.5410156,0.40625-0.7167969
		c0.2705078-0.1748047,0.5888672-0.2617188,0.9550781-0.2617188h8.5029297c0.3173828,0,0.5605469,0.1347656,0.7275391,0.40625
		c0.1679688,0.2714844,0.2509766,0.5810547,0.2509766,0.9306641c0,0.3818359-0.0878906,0.7089844-0.2617188,0.9794922
		c-0.1757812,0.2705078-0.4150391,0.40625-0.7167969,0.40625h-6.7597656v4.7763672h3.6298828
		c0.3037109,0,0.5410156,0.1240234,0.7177734,0.3701172c0.1748047,0.2470703,0.2617188,0.5380859,0.2617188,0.8720703
		c0,0.3027344-0.0830078,0.5771484-0.25,0.8232422c-0.1669922,0.2480469-0.4101562,0.3710938-0.7294922,0.3710938h-3.6298828
		v4.8007812h6.7597656c0.3017578,0,0.5410156,0.1347656,0.7167969,0.40625
		c0.1738281,0.2705078,0.2617188,0.5966797,0.2617188,0.9785156c0,0.3515625-0.0830078,0.6611328-0.2509766,0.9316406
		c-0.1669922,0.2705078-0.4101562,0.40625-0.7275391,0.40625h-8.5029297c-0.3662109,0-0.6845703-0.0878906-0.9550781-0.2626953
		C134.3681641,31.3481445,134.2333984,31.1088867,134.2333984,30.8051758"/>
	<path fill="#FFFFFF" d="M147.8466797,30.8051758v-15.5c0-0.3183594,0.1513672-0.5615234,0.4541016-0.7285156
		c0.3017578-0.1669922,0.6689453-0.25,1.0986328-0.25c0.5732422,0,1.0117188,0.1035156,1.3134766,0.3105469
		s0.6367188,0.6523438,1.0029297,1.3359375l4.6103516,8.9101562v-9.6015625c0-0.3183594,0.1503906-0.5566406,0.453125-0.7158203
		c0.3027344-0.1601562,0.6689453-0.2392578,1.0986328-0.2392578s0.7958984,0.0791016,1.0986328,0.2392578
		c0.3027344,0.1591797,0.4541016,0.3974609,0.4541016,0.7158203v15.5234375c0,0.3037109-0.15625,0.5429688-0.4658203,0.7177734
		c-0.3105469,0.1748047-0.6728516,0.2626953-1.0869141,0.2626953c-0.84375,0-1.4414062-0.3261719-1.7910156-0.9804688
		l-5.1347656-9.5996094v9.5996094c0,0.3037109-0.1552734,0.5429688-0.4658203,0.7177734s-0.6738281,0.2626953-1.0869141,0.2626953
		c-0.4296875,0-0.796875-0.0878906-1.0986328-0.2626953C147.9980469,31.3481445,147.8466797,31.1088867,147.8466797,30.8051758"/>
	<path fill="#FFFFFF" d="M162.3925781,29.0395508c0-0.3671875,0.1386719-0.7373047,0.4179688-1.1113281
		c0.2773438-0.3740234,0.5927734-0.5605469,0.9423828-0.5605469c0.2070312,0,0.4423828,0.0976562,0.7050781,0.296875
		c0.2626953,0.1982422,0.5175781,0.4179688,0.7636719,0.6582031c0.2470703,0.2392578,0.6015625,0.4589844,1.0634766,0.65625
		c0.4619141,0.1992188,0.9707031,0.2978516,1.5283203,0.2978516c0.7646484,0,1.4003906-0.1748047,1.9111328-0.5244141
		c0.5097656-0.3505859,0.7636719-0.8681641,0.7636719-1.5527344c0-0.4775391-0.1386719-0.9042969-0.4179688-1.2773438
		c-0.2783203-0.375-0.6455078-0.6845703-1.0986328-0.9316406c-0.453125-0.2460938-0.9511719-0.4863281-1.4921875-0.7167969
		c-0.5419922-0.2304688-1.0869141-0.4902344-1.6367188-0.7773438c-0.5488281-0.2851562-1.0507812-0.6083984-1.5048828-0.9667969
		c-0.4541016-0.3574219-0.8193359-0.8359375-1.0976562-1.4316406c-0.2792969-0.5976562-0.4179688-1.2783203-0.4179688-2.0429688
		c0-0.8554688,0.1708984-1.6123047,0.5126953-2.265625c0.3417969-0.6552734,0.7998047-1.1640625,1.3740234-1.5283203
		c0.5732422-0.3632812,1.1855469-0.6298828,1.8388672-0.7998047c0.6523438-0.1699219,1.3457031-0.2539062,2.0771484-0.2539062
		c0.4140625,0,0.8525391,0.0283203,1.3144531,0.0859375c0.4619141,0.0566406,0.9511719,0.1503906,1.46875,0.28125
		c0.5166016,0.1308594,0.9384766,0.3359375,1.265625,0.6132812C173,15.465332,173.1630859,15.793457,173.1630859,16.168457
		c0,0.3544922-0.1113281,0.7216797-0.3339844,1.1005859s-0.5253906,0.5673828-0.9072266,0.5673828
		c-0.1435547,0-0.5341797-0.1503906-1.1708984-0.453125s-1.3457031-0.453125-2.1259766-0.453125
		c-0.8583984,0-1.5234375,0.1630859-1.9941406,0.4882812c-0.46875,0.328125-0.7050781,0.7763672-0.7050781,1.3505859
		c0,0.4619141,0.1923828,0.8642578,0.5742188,1.2050781c0.3818359,0.3427734,0.8554688,0.6220703,1.4208984,0.8369141
		c0.5654297,0.2138672,1.1787109,0.4863281,1.8388672,0.8125s1.2744141,0.6796875,1.8398438,1.0625
		c0.5644531,0.3818359,1.0380859,0.9355469,1.4208984,1.6601562c0.3818359,0.7246094,0.5722656,1.5722656,0.5722656,2.5429688
		c0,1.6328125-0.5205078,2.8925781-1.5634766,3.7792969c-1.0429688,0.8886719-2.4169922,1.3320312-4.1201172,1.3320312
		c-1.5126953,0-2.8105469-0.3105469-3.8925781-0.9316406C162.9335938,30.4477539,162.3925781,29.7709961,162.3925781,29.0395508"/>
	<path fill="#FFFFFF" d="M176.4824219,26.4594727v-6.6640625c0-1.8945312,0.5048828-3.2792969,1.5175781-4.15625
		c1.0107422-0.875,2.3681641-1.3125,4.0712891-1.3125s3.0654297,0.4375,4.0839844,1.3125
		c1.0195312,0.8769531,1.5292969,2.2617188,1.5292969,4.15625v6.6640625c0,1.8945312-0.5097656,3.2792969-1.5292969,4.1542969
		c-1.0185547,0.8769531-2.3808594,1.3144531-4.0839844,1.3144531s-3.0605469-0.4375-4.0712891-1.3144531
		C176.9873047,29.7387695,176.4824219,28.3540039,176.4824219,26.4594727 M179.5878906,26.4594727
		c0,1.8310547,0.828125,2.7470703,2.4833984,2.7470703c1.6728516,0,2.5087891-0.9160156,2.5087891-2.7470703v-6.6640625
		c0-1.8300781-0.8359375-2.7460938-2.5087891-2.7460938c-1.6552734,0-2.4833984,0.9160156-2.4833984,2.7460938V26.4594727z"/>
	<path fill="#FFFFFF" d="M191.2900391,30.8061523V15.2817383c0-0.2548828,0.0957031-0.4775391,0.2871094-0.6679688
		c0.1914062-0.1914062,0.4296875-0.2871094,0.7158203-0.2871094h4.7294922c3.7734375,0,5.6611328,1.6640625,5.6611328,4.9912109
		c0,1.3056641-0.2832031,2.3574219-0.8486328,3.1523438c-0.5654297,0.796875-1.3261719,1.3378906-2.2802734,1.625
		l3.1289062,5.8027344c0.0791016,0.0966797,0.1181641,0.2236328,0.1181641,0.3818359
		c0,0.3994141-0.2070312,0.7695312-0.6201172,1.1113281c-0.4140625,0.3427734-0.8525391,0.5136719-1.3144531,0.5136719
		s-0.8203125-0.2480469-1.0742188-0.7402344l-3.3916016-6.5917969h-2.0058594v6.2333984
		c0,0.3017578-0.1513672,0.5410156-0.4541016,0.7158203c-0.3017578,0.1757812-0.6679688,0.2636719-1.0986328,0.2636719
		c-0.4130859,0-0.7763672-0.0878906-1.0869141-0.2636719C191.4462891,31.347168,191.2900391,31.1079102,191.2900391,30.8061523
		 M194.3955078,22.1362305h2.6269531c1.7041016,0,2.5556641-0.8447266,2.5556641-2.5322266
		c0-1.703125-0.8515625-2.5546875-2.5556641-2.5546875h-2.6269531V22.1362305z"/>
</g>
</svg>
